<svg xmlns="http://www.w3.org/2000/svg" width="192" height="192" viewBox="0 0 512 512">
  <defs>
    <linearGradient id="grad" x1="0%" y1="0%" x2="100%" y2="100%">
      <stop offset="0%" style="stop-color:#667eea;stop-opacity:1" />
      <stop offset="100%" style="stop-color:#764ba2;stop-opacity:1" />
    </linearGradient>
  </defs>

  <!-- Background circle -->
  <circle cx="256" cy="256" r="240" fill="url(#grad)"/>

  <!-- Outer circle border -->
  <circle cx="256" cy="256" r="180" fill="none" stroke="white" stroke-width="4"/>

  <!-- String art pattern -->
  <g stroke="white" stroke-width="1.5" opacity="0.6">
    <line x1="256" y1="76" x2="400" y2="350"/>
    <line x1="400" y1="150" x2="112" y2="256"/>
    <line x1="436" y1="256" x2="150" y2="100"/>
    <line x1="256" y1="436" x2="112" y2="162"/>
    <line x1="112" y1="362" x2="400" y2="256"/>
    <line x1="76" y1="256" x2="362" y2="400"/>
    <line x1="180" y1="110" x2="332" y2="402"/>
    <line x1="402" y1="180" x2="110" y2="332"/>
    <line x1="332" y1="110" x2="180" y2="402"/>
    <line x1="110" y1="180" x2="402" y2="332"/>
  </g>

  <!-- Stronger central lines -->
  <g stroke="white" stroke-width="2" opacity="0.8">
    <line x1="256" y1="76" x2="256" y2="436"/>
    <line x1="76" y1="256" x2="436" y2="256"/>
    <line x1="130" y1="130" x2="382" y2="382"/>
    <line x1="382" y1="130" x2="130" y2="382"/>
  </g>

  <!-- Pin points -->
  <g fill="white">
    <circle cx="256" cy="76" r="6"/>
    <circle cx="332" cy="96" r="6"/>
    <circle cx="400" cy="150" r="6"/>
    <circle cx="436" cy="256" r="6"/>
    <circle cx="400" cy="362" r="6"/>
    <circle cx="332" cy="416" r="6"/>
    <circle cx="256" cy="436" r="6"/>
    <circle cx="180" cy="416" r="6"/>
    <circle cx="112" cy="362" r="6"/>
    <circle cx="76" cy="256" r="6"/>
    <circle cx="112" cy="150" r="6"/>
    <circle cx="180" cy="96" r="6"/>
  </g>

  <!-- Center highlight -->
  <circle cx="256" cy="256" r="12" fill="white" opacity="0.9"/>
</svg>
